{
	"asset":{
		"generator":"Khronos glTF Blender I/O v3.5.30",
		"version":"2.0"
	},
	"scene":0,
	"scenes":[
		{
			"name":"Scene",
			"nodes":[
				0
			]
		}
	],
	"nodes":[
		{
			"mesh":0,
			"name":"planet",
			"rotation":[
				0.7071068286895752,
				0,
				0,
				0.7071068286895752
			]
		}
	],
	"materials":[
		{
			"doubleSided":true,
			"name":"mat_planet",
			"normalTexture":{
				"index":0
			},
			"pbrMetallicRoughness":{
				"baseColorTexture":{
					"index":1
				},
				"metallicFactor":0,
				"metallicRoughnessTexture":{
					"index":2
				}
			}
		}
	],
	"meshes":[
		{
			"name":"Mesh",
			"primitives":[
				{
					"attributes":{
						"POSITION":0,
						"TEXCOORD_0":1,
						"NORMAL":2
					},
					"indices":3,
					"material":0
				}
			]
		}
	],
	"textures":[
		{
			"sampler":0,
			"source":0
		},
		{
			"sampler":0,
			"source":1
		},
		{
			"sampler":0,
			"source":2
		}
	],
	"images":[
		{
			"bufferView":4,
			"mimeType":"image/png",
			"name":"tex_planet_N"
		},
		{
			"bufferView":5,
			"mimeType":"image/png",
			"name":"tex_planet1_BC"
		},
		{
			"bufferView":6,
			"mimeType":"image/png",
			"name":"tex_planet_R"
		}
	],
	"accessors":[
		{
			"bufferView":0,
			"componentType":5126,
			"count":439,
			"max":[
				2.062744617462158,
				2.062744617462158,
				2.062744140625
			],
			"min":[
				-2.062744617462158,
				-2.062744617462158,
				-2.062744140625
			],
			"type":"VEC3"
		},
		{
			"bufferView":1,
			"componentType":5126,
			"count":439,
			"type":"VEC2"
		},
		{
			"bufferView":2,
			"componentType":5126,
			"count":439,
			"type":"VEC3"
		},
		{
			"bufferView":3,
			"componentType":5123,
			"count":2280,
			"type":"SCALAR"
		}
	],
	"bufferViews":[
		{
			"buffer":0,
			"byteLength":5268,
			"byteOffset":0,
			"target":34962
		},
		{
			"buffer":0,
			"byteLength":3512,
			"byteOffset":5268,
			"target":34962
		},
		{
			"buffer":0,
			"byteLength":5268,
			"byteOffset":8780,
			"target":34962
		},
		{
			"buffer":0,
			"byteLength":4560,
			"byteOffset":14048,
			"target":34963
		},
		{
			"buffer":0,
			"byteLength":16902,
			"byteOffset":18608
		},
		{
			"buffer":0,
			"byteLength":1970857,
			"byteOffset":35512
		},
		{
			"buffer":0,
			"byteLength":59418,
			"byteOffset":2006372
		}
	],
	"samplers":[
		{
			"magFilter":9729,
			"minFilter":9987
		}
	],
	"buffers":[
		{
			"byteLength":2065792,
			"uri":"data:application/octet-stream;base64,"
		}
	]
}
